<?xml version="1.0" encoding="iso-8859-1"?>
<!-- Generator: Adobe Illustrator 19.0.0, SVG Export Plug-In . SVG Version: 6.00 Build 0)  -->
<svg version="1.1" id="Capa_1" xmlns="http://www.w3.org/2000/svg" xmlns:xlink="http://www.w3.org/1999/xlink" x="0px" y="0px"
	 viewBox="0 0 477.658 477.658" style="enable-background:new 0 0 477.658 477.658;" xml:space="preserve">
<g>
	<path style="fill:#BCBCBC;" d="M353.656,20.002c-6.624,6.624-6.624,17.376,0,24l20,20l40,40l20,20c6.624,6.624,17.376,6.624,24,0
		l12-12l-104-104L353.656,20.002z"/>
	
		<rect x="326.047" y="83.718" transform="matrix(-0.7071 0.7071 -0.7071 -0.7071 703.3854 -67.3566)" style="fill:#BCBCBC;" width="79.191" height="56.559"/>
</g>
<g>
	
		<rect x="189.803" y="138.999" transform="matrix(-0.7071 0.7071 -0.7071 -0.7071 550.1871 84.0476)" style="fill:#FFFFFF;" width="135.767" height="33.944"/>
	
		<rect x="253.8" y="202.999" transform="matrix(-0.7071 0.7071 -0.7071 -0.7071 704.6913 148.0499)" style="fill:#FFFFFF;" width="135.767" height="33.944"/>
</g>
<polygon style="fill:#06B0C7;" points="221.656,216.002 197.656,192.002 165.656,224.002 181.656,240.002 165.656,224.002 
	133.656,256.002 149.656,272.002 133.656,256.002 101.656,288.002 117.656,304.002 101.656,288.002 69.656,320.002 85.656,336.002 
	69.656,320.002 53.656,336.002 53.656,424.002 141.656,424.002 285.656,280.002 261.656,256.002 "/>
<rect x="221.793" y="159.683" transform="matrix(-0.7071 0.7071 -0.7071 -0.7071 627.4188 116.0403)" style="fill:#BCBCBC;" width="135.767" height="56.559"/>
<path d="M371.312,2.346c-3.128-3.128-8.184-3.128-11.312,0l-12,12c-4.72,4.712-7.32,10.984-7.32,17.656s2.6,12.944,7.32,17.656
	l14.344,14.344l-44.688,44.688l-18.344-18.344l-24-24L264,77.658l18.344,18.344L48,330.346c-1.504,1.496-2.344,3.528-2.344,5.656
	v84.688L0,466.346l11.312,11.312l45.656-45.656h84.688c2.12,0,4.16-0.84,5.656-2.344l234.344-234.344L400,213.658l11.312-11.312
	l-24-24l-18.344-18.344l44.688-44.688L428,129.658c4.864,4.864,11.264,7.296,17.656,7.296s12.792-2.432,17.656-7.296l12-12
	c3.128-3.128,3.128-8.184,0-11.312L371.312,2.346z M306.344,120.002l-84.688,84.688l-12.688-12.688l84.688-84.688L306.344,120.002z
	 M232.968,216.002l84.688-84.688l28.688,28.688l-84.688,84.688L232.968,216.002z M138.344,416.002H61.656v-76.688l8-8L80,341.658
	l11.312-11.312l-10.344-10.344l20.688-20.688L112,309.658l11.312-11.312l-10.344-10.344l20.688-20.688L144,277.658l11.312-11.312
	l-10.344-10.344l20.688-20.688L176,245.658l11.312-11.312l-10.344-10.344l20.688-20.688L216,221.658l40,40l18.344,18.344
	L138.344,416.002z M370.344,184.002l-84.688,84.688l-12.688-12.688l84.688-84.688L370.344,184.002z M357.656,148.69l-28.688-28.688
	l44.688-44.688l28.688,28.688L357.656,148.69z M452,118.346c-3.504,3.504-9.184,3.504-12.688,0l-20-20l-40-40l-20-20
	c-1.696-1.696-2.632-3.944-2.632-6.344s0.936-4.648,2.632-6.344l6.344-6.344l92.688,92.688L452,118.346z"/>
<g>
</g>
<g>
</g>
<g>
</g>
<g>
</g>
<g>
</g>
<g>
</g>
<g>
</g>
<g>
</g>
<g>
</g>
<g>
</g>
<g>
</g>
<g>
</g>
<g>
</g>
<g>
</g>
<g>
</g>
</svg>
